<svg width="33" height="34" viewBox="0 0 33 34" fill="none" xmlns="http://www.w3.org/2000/svg">
<path fill-rule="evenodd" clip-rule="evenodd" d="M13.3288 5.39637C11.7948 6.22237 10.3788 6.93037 10.3788 6.93037C10.3788 7.04837 14.2728 8.93637 14.3908 8.93637C14.5088 8.93637 14.8628 8.70037 15.4528 8.46437L16.3968 7.99237L17.3408 8.58237L18.2848 9.05437L19.9368 8.34637C22.2968 7.28437 22.6508 7.16637 22.5328 7.04837C22.5328 7.04837 21.5888 6.57637 19.2288 5.27837C18.0488 4.68837 16.9868 4.09837 16.7508 3.98037C16.6328 3.98037 16.3968 3.86237 16.3968 3.86237C16.3968 3.86237 14.9808 4.57037 13.3288 5.39637ZM6.24876 9.05437L4.59676 9.88037V13.6564C4.59676 15.7804 4.59676 17.4324 4.59676 17.4324C4.59676 17.4324 5.42276 17.0784 6.48476 16.6064L8.25476 15.7804V12.0044L9.08076 12.4764C9.78876 12.8304 10.3788 13.1844 11.0868 13.5384L12.2668 14.1284L12.7388 13.8924C13.0928 13.7744 13.3288 13.6564 13.6828 13.4204C13.9188 13.3024 14.5088 13.0664 14.9808 12.8304C15.4528 12.5944 15.9248 12.3584 16.0428 12.3584C16.1608 12.2404 15.0988 11.7684 12.1488 10.2344C9.90676 9.05437 8.13676 8.22837 8.01876 8.22837C8.01876 8.22837 7.19276 8.58237 6.24876 9.05437ZM22.8868 9.29037C21.7068 9.76237 20.7628 10.2344 20.7628 10.2344C20.7628 10.2344 21.3528 10.5884 22.1788 11.0604C22.8868 11.5324 23.5948 11.8864 23.5948 11.8864C23.5948 11.8864 22.8868 12.2404 22.0608 12.5944C21.2348 12.9484 19.1108 13.8924 17.4588 14.7184L11.6768 17.3144C10.1428 18.0224 8.84476 18.6124 8.72676 18.7304C5.77676 20.0284 4.95076 20.5004 4.83276 20.5004C4.71476 20.6184 4.71476 20.9724 4.71476 22.8604V25.1024L6.24876 25.8104L7.54676 26.6364L9.67076 25.6924C10.8508 25.2204 11.7948 24.7484 11.7948 24.7484C11.7948 24.7484 11.5588 24.6304 11.3228 24.3944C11.0868 24.2764 10.4968 23.9224 10.1428 23.6864C9.78876 23.4504 9.31676 23.2144 9.31676 23.2144C9.19876 23.2144 9.19876 23.0964 9.19876 23.0964C9.19876 23.0964 10.1428 22.6244 11.2048 22.1524C13.3288 21.2084 15.0988 20.3824 18.6388 18.8484C20.2908 18.1404 21.8248 17.4324 23.4768 16.7244C24.8928 16.1344 26.5448 15.3084 27.1348 15.0724L28.1968 14.6004V12.3584V10.1164L26.6628 9.29037C25.8368 8.81837 25.1288 8.46437 25.0108 8.46437C25.0108 8.34637 23.9488 8.81837 22.8868 9.29037ZM27.6068 17.5504C27.3708 17.6684 26.8988 17.9044 26.6628 18.0224C26.3088 18.1404 25.7188 18.4944 25.3648 18.6124L24.6568 18.9664V20.9724C24.6568 22.0344 24.6568 22.9784 24.5388 22.9784C24.4208 22.9784 23.0048 22.2704 21.5888 21.4444C20.5268 20.8544 20.5268 20.8544 20.2908 20.9724C20.1728 21.0904 19.3468 21.4444 18.4028 21.7984C17.4588 22.1524 16.7508 22.5064 16.7508 22.6244C16.7508 22.6244 18.5208 23.5684 20.7628 24.7484L24.7748 26.8724L26.5448 25.9284C27.4888 25.4564 28.3148 24.9844 28.3148 24.9844C28.4328 24.8664 28.4328 17.4324 28.3148 17.4324C28.0788 17.3144 27.8428 17.4324 27.6068 17.5504ZM18.0488 26.2824C17.6948 26.4004 17.4588 26.5184 17.1048 26.6364C16.1608 26.9904 16.3968 26.9904 15.3348 26.5184C14.6268 26.1644 14.2728 26.0464 14.1548 26.1644C14.0368 26.1644 13.2108 26.6364 12.2668 26.9904C11.3228 27.4624 10.4968 27.8164 10.4968 27.8164C10.1428 27.8164 10.7328 28.1704 13.3288 29.4684L16.3968 31.0024L17.6948 30.4124C18.4028 30.0584 19.8188 29.3504 20.8808 28.8784C21.9428 28.4064 22.7688 27.9344 22.7688 27.9344C22.7688 27.9344 21.9428 27.4624 20.8808 26.9904L18.9928 26.0464L18.0488 26.2824Z" fill="white"/>
</svg>
