<svg width="417" height="154" viewBox="0 0 417 154" fill="none" xmlns="http://www.w3.org/2000/svg">
<g filter="url(#filter0_d_45_165)">
<path d="M30.2511 25.8V120.2H37.8511C46.1177 120.2 50.2511 115.533 50.2511 106.2V39.8C50.2511 30.4667 46.1177 25.8 37.8511 25.8H30.2511ZM5.85107 143V3H39.6511C50.4511 3 58.9844 6 65.2511 12C71.6511 18 74.8511 26.6667 74.8511 38V107.4C74.8511 118.733 71.5844 127.533 65.0511 133.8C58.5177 139.933 49.8511 143 39.0511 143H5.85107Z" fill="#827968" fill-opacity="0.13" shape-rendering="crispEdges"/>
<path d="M115.165 35.8V110.2C115.165 113.933 116.098 116.867 117.965 119C119.965 121.133 122.565 122.2 125.765 122.2C128.965 122.2 131.498 121.133 133.365 119C135.232 116.867 136.165 113.933 136.165 110.2V35.8C136.165 32.0667 135.232 29.1333 133.365 27C131.498 24.8667 128.965 23.8 125.765 23.8C122.565 23.8 119.965 24.8667 117.965 27C116.098 29.1333 115.165 32.0667 115.165 35.8ZM90.7651 110.6V36.2C90.7651 25.6667 94.1651 17.2 100.965 10.8C107.765 4.26667 116.165 1 126.165 1C136.165 1 144.432 4.13333 150.965 10.4C157.498 16.6667 160.765 25 160.765 35.4V110C160.765 120.4 157.365 128.867 150.565 135.4C143.765 141.8 135.365 145 125.365 145C115.365 145 107.098 141.867 100.565 135.6C94.0318 129.333 90.7651 121 90.7651 110.6Z" fill="#827968" fill-opacity="0.13" shape-rendering="crispEdges"/>
<path d="M203.103 25.8V69H210.703C218.969 69 223.103 64.3333 223.103 55V39.8C223.103 30.4667 218.969 25.8 210.703 25.8H203.103ZM253.703 143H228.303L213.103 89.4H203.103V143H178.703V3H210.903C222.503 3 231.503 6.06667 237.903 12.2C244.436 18.3333 247.703 27.4 247.703 39.4V54.6C247.703 67.2667 243.369 76.2 234.703 81.4L253.703 143Z" fill="#827968" fill-opacity="0.13" shape-rendering="crispEdges"/>
<path d="M264.64 143V3H289.04V64.8L310.44 3H337.64L311.24 69.4L339.64 143H312.44L289.04 76.8V143H264.64Z" fill="#827968" fill-opacity="0.13" shape-rendering="crispEdges"/>
<path d="M366.248 100V110.2C366.248 114.2 367.181 117.333 369.048 119.6C371.048 121.867 373.648 123 376.848 123C379.915 123 382.381 121.933 384.248 119.8C386.248 117.533 387.248 114.6 387.248 111C387.248 106.067 385.848 101.333 383.048 96.8C380.248 92.1333 374.848 85.9333 366.848 78.2C351.515 63.6667 343.848 49.2 343.848 34.8C343.848 24.6667 347.115 16.5333 353.648 10.4C360.315 4.13333 368.448 1 378.048 1C387.515 1 395.315 4 401.448 10C407.715 15.8667 410.848 23.7333 410.848 33.6V43H387.248V34.8C387.248 31.2 386.381 28.4 384.648 26.4C382.915 24.2667 380.648 23.2 377.848 23.2C374.915 23.2 372.581 24.2 370.848 26.2C369.115 28.0667 368.248 30.6667 368.248 34C368.248 38.1333 369.581 42.3333 372.248 46.6C375.048 50.7333 380.248 56.4667 387.848 63.8C395.981 71.6667 401.981 79.2667 405.848 86.6C409.848 93.9333 411.848 101.8 411.848 110.2C411.848 120.6 408.448 129 401.648 135.4C394.848 141.8 386.448 145 376.448 145C366.715 145 358.648 142 352.248 136C345.848 129.867 342.648 121.667 342.648 111.4V100H366.248Z" fill="#827968" fill-opacity="0.13" shape-rendering="crispEdges"/>
<path d="M5.35107 143V143.5H5.85107H39.0511C49.9506 143.5 58.7489 140.402 65.3933 134.165L65.3972 134.161C72.0524 127.777 75.3511 118.833 75.3511 107.4V38C75.3511 26.5721 72.1218 17.7571 65.5949 11.637C59.2139 5.52857 50.5457 2.5 39.6511 2.5H5.85107H5.35107V3V143ZM150.908 135.764L150.912 135.761C157.82 129.123 161.265 120.521 161.265 110V35.4C161.265 24.8859 157.958 16.4144 151.311 10.0392C144.675 3.6735 136.279 0.5 126.165 0.5C116.046 0.5 107.519 3.81025 100.621 10.4377C93.7081 16.9445 90.2651 25.5492 90.2651 36.2V110.6C90.2651 121.114 93.5725 129.586 100.219 135.961C106.856 142.326 115.251 145.5 125.365 145.5C135.483 145.5 144.008 142.258 150.908 135.764ZM253.703 143.5H254.38L254.18 142.853L235.295 81.6245C243.927 76.2825 248.203 67.2285 248.203 54.6V39.4C248.203 27.3115 244.91 18.0934 238.246 11.8367C231.727 5.59083 222.589 2.5 210.903 2.5H178.703H178.203V3V143V143.5H178.703H203.103H203.603V143V89.9H212.725L227.822 143.136L227.925 143.5H228.303H253.703ZM264.14 143V143.5H264.64H289.04H289.54V143V79.7148L311.969 143.167L312.087 143.5H312.44H339.64H340.369L340.107 142.82L311.777 69.4027L338.105 3.18473L338.377 2.5H337.64H310.44H310.084L309.968 2.83639L289.54 61.828V3V2.5H289.04H264.64H264.14V3V143ZM366.748 100V99.5H366.248H342.648H342.148V100V111.4C342.148 121.779 345.388 130.118 351.902 136.361L351.906 136.365C358.409 142.461 366.603 145.5 376.448 145.5C386.565 145.5 395.091 142.258 401.991 135.764C408.903 129.258 412.348 120.721 412.348 110.2C412.348 101.718 410.328 93.7709 406.289 86.365C402.391 78.9718 396.353 71.3309 388.196 63.4406L388.195 63.4402C380.604 56.115 375.437 50.4142 372.667 46.3272C370.043 42.1254 368.748 38.0186 368.748 34C368.748 30.7528 369.591 28.2887 371.214 26.5402L371.22 26.5339L371.226 26.5275C372.853 24.6497 375.042 23.7 377.848 23.7C380.501 23.7 382.624 24.7013 384.26 26.7153L384.265 26.7215L384.27 26.7275C385.9 28.6083 386.748 31.2768 386.748 34.8V43V43.5H387.248H410.848H411.348V43V33.6C411.348 23.6197 408.174 15.6141 401.794 9.63881C395.557 3.54009 387.629 0.5 378.048 0.5C368.328 0.5 360.07 3.67724 353.305 10.0357C346.658 16.2763 343.348 24.5486 343.348 34.8C343.348 49.3901 351.117 63.9786 366.503 78.5615C374.496 86.2882 379.855 92.45 382.619 97.0573L382.623 97.0628C385.378 101.524 386.748 106.167 386.748 111C386.748 114.503 385.778 117.311 383.873 119.469L383.872 119.471C382.108 121.486 379.784 122.5 376.848 122.5C373.785 122.5 371.327 121.423 369.428 119.276C367.662 117.127 366.748 114.122 366.748 110.2V100ZM30.7511 119.7V26.3H37.8511C41.8905 26.3 44.8334 27.4374 46.7768 29.6315C48.7304 31.8372 49.7511 35.1965 49.7511 39.8V106.2C49.7511 110.804 48.7304 114.163 46.7768 116.368C44.8334 118.563 41.8905 119.7 37.8511 119.7H30.7511ZM115.665 110.2V35.8C115.665 32.1526 116.575 29.3518 118.336 27.3357C120.231 25.3175 122.692 24.3 125.765 24.3C128.842 24.3 131.23 25.3191 132.989 27.3293C134.753 29.3458 135.665 32.1487 135.665 35.8V110.2C135.665 113.851 134.753 116.654 132.989 118.671C131.23 120.681 128.842 121.7 125.765 121.7C122.692 121.7 120.231 120.683 118.336 118.664C116.575 116.648 115.665 113.847 115.665 110.2ZM210.703 68.5H203.603V26.3H210.703C214.742 26.3 217.685 27.4374 219.628 29.6315C221.582 31.8372 222.603 35.1965 222.603 39.8V55C222.603 59.6035 221.582 62.9628 219.628 65.1685C217.685 67.3626 214.742 68.5 210.703 68.5Z" stroke="black" shape-rendering="crispEdges"/>
</g>
<defs>
<filter id="filter0_d_45_165" x="0.851074" y="0" width="415.997" height="154" filterUnits="userSpaceOnUse" color-interpolation-filters="sRGB">
<feFlood flood-opacity="0" result="BackgroundImageFix"/>
<feColorMatrix in="SourceAlpha" type="matrix" values="0 0 0 0 0 0 0 0 0 0 0 0 0 0 0 0 0 0 127 0" result="hardAlpha"/>
<feOffset dy="4"/>
<feGaussianBlur stdDeviation="2"/>
<feComposite in2="hardAlpha" operator="out"/>
<feColorMatrix type="matrix" values="0 0 0 0 0 0 0 0 0 0 0 0 0 0 0 0 0 0 0.25 0"/>
<feBlend mode="normal" in2="BackgroundImageFix" result="effect1_dropShadow_45_165"/>
<feBlend mode="normal" in="SourceGraphic" in2="effect1_dropShadow_45_165" result="shape"/>
</filter>
</defs>
</svg>
