<svg width="1468" height="508" viewBox="0 0 1468 508" fill="none" xmlns="http://www.w3.org/2000/svg">
<g clip-path="url(#clip0_179_11)">
<rect x="0.25" y="0.931396" width="1467" height="319" fill="url(#paint0_linear_179_11)"/>
<g opacity="0.5">
<path d="M-124.15 113.596V124.796C-124.15 128.529 -123.283 131.463 -121.55 133.596C-119.817 135.729 -117.483 136.796 -114.55 136.796C-111.483 136.796 -109.083 135.796 -107.35 133.796C-105.617 131.663 -104.75 128.863 -104.75 125.396C-104.75 115.263 -110.817 104.129 -122.95 91.9959C-138.017 76.9293 -145.55 62.0626 -145.55 47.396C-145.55 39.2626 -143.35 32.4626 -138.95 26.996C-134.417 21.3959 -128.55 17.7959 -121.35 16.1959V0.595947H-106.95V15.7959C-99.4833 16.9959 -93.55 20.2626 -89.15 25.5959C-84.6167 30.7959 -82.35 37.5959 -82.35 45.9959V56.596H-104.75V47.396C-104.75 43.9293 -105.55 41.2626 -107.15 39.396C-108.75 37.396 -110.883 36.396 -113.55 36.396C-116.217 36.396 -118.35 37.3293 -119.95 39.1959C-121.417 41.0626 -122.15 43.596 -122.15 46.7959C-122.15 55.0626 -115.95 65.4626 -103.55 77.9959C-88.8833 93.0626 -81.55 108.663 -81.55 124.796C-81.55 133.329 -83.8833 140.463 -88.55 146.196C-93.2167 151.796 -99.35 155.396 -106.95 156.996V172.596H-121.35V157.396C-129.083 156.196 -135.283 152.863 -139.95 147.396C-144.483 141.929 -146.75 134.863 -146.75 126.196V113.596H-124.15Z" fill="#FF928B" fill-opacity="0.4"/>
<path d="M-41.2016 39.396V133.796H-33.6016C-25.3349 133.796 -21.2016 129.129 -21.2016 119.796V53.3959C-21.2016 44.0626 -25.3349 39.396 -33.6016 39.396H-41.2016ZM-65.6016 156.596V16.5959H-31.8016C-21.0016 16.5959 -12.4682 19.5959 -6.20157 25.5959C0.198425 31.5959 3.39844 40.2626 3.39844 51.5959V120.996C3.39844 132.329 0.131775 141.129 -6.40157 147.396C-12.9349 153.529 -21.6016 156.596 -32.4016 156.596H-65.6016Z" fill="#FF928B" fill-opacity="0.4"/>
<path d="M43.7125 49.396V123.796C43.7125 127.529 44.6458 130.463 46.5125 132.596C48.5125 134.729 51.1125 135.796 54.3125 135.796C57.5125 135.796 60.0458 134.729 61.9125 132.596C63.7792 130.463 64.7125 127.529 64.7125 123.796V49.396C64.7125 45.6626 63.7792 42.7293 61.9125 40.5959C60.0458 38.4626 57.5125 37.396 54.3125 37.396C51.1125 37.396 48.5125 38.4626 46.5125 40.5959C44.6458 42.7293 43.7125 45.6626 43.7125 49.396ZM19.3125 124.196V49.7959C19.3125 39.2626 22.7125 30.7959 29.5125 24.396C36.3125 17.8626 44.7125 14.5959 54.7125 14.5959C64.7125 14.5959 72.9792 17.7293 79.5125 23.9959C86.0458 30.2626 89.3125 38.5959 89.3125 48.9959V123.596C89.3125 133.996 85.9125 142.463 79.1125 148.996C72.3125 155.396 63.9125 158.596 53.9125 158.596C43.9125 158.596 35.6458 155.463 29.1125 149.196C22.5792 142.929 19.3125 134.596 19.3125 124.196Z" fill="#FF928B" fill-opacity="0.4"/>
<path d="M131.65 39.396V82.596H139.25C147.517 82.596 151.65 77.9293 151.65 68.5959V53.3959C151.65 44.0626 147.517 39.396 139.25 39.396H131.65ZM182.25 156.596H156.85L141.65 102.996H131.65V156.596H107.25V16.5959H139.45C151.05 16.5959 160.05 19.6626 166.45 25.7959C172.983 31.9293 176.25 40.9959 176.25 52.996V68.1959C176.25 80.8626 171.917 89.796 163.25 94.9959L182.25 156.596Z" fill="#FF928B" fill-opacity="0.4"/>
<path d="M193.188 156.596V16.5959H217.587V78.396L238.987 16.5959H266.188L239.788 82.9959L268.188 156.596H240.987L217.587 90.396V156.596H193.188Z" fill="#FF928B" fill-opacity="0.4"/>
<path d="M304.85 113.596V124.796C304.85 128.529 305.717 131.463 307.45 133.596C309.183 135.729 311.517 136.796 314.45 136.796C317.517 136.796 319.917 135.796 321.65 133.796C323.383 131.663 324.25 128.863 324.25 125.396C324.25 115.263 318.183 104.129 306.05 91.9959C290.983 76.9293 283.45 62.0626 283.45 47.396C283.45 39.2626 285.65 32.4626 290.05 26.996C294.583 21.3959 300.45 17.7959 307.65 16.1959V0.595947H322.05V15.7959C329.517 16.9959 335.45 20.2626 339.85 25.5959C344.383 30.7959 346.65 37.5959 346.65 45.9959V56.596H324.25V47.396C324.25 43.9293 323.45 41.2626 321.85 39.396C320.25 37.396 318.117 36.396 315.45 36.396C312.783 36.396 310.65 37.3293 309.05 39.1959C307.583 41.0626 306.85 43.596 306.85 46.7959C306.85 55.0626 313.05 65.4626 325.45 77.9959C340.117 93.0626 347.45 108.663 347.45 124.796C347.45 133.329 345.117 140.463 340.45 146.196C335.783 151.796 329.65 155.396 322.05 156.996V172.596H307.65V157.396C299.917 156.196 293.717 152.863 289.05 147.396C284.517 141.929 282.25 134.863 282.25 126.196V113.596H304.85Z" fill="#FF928B" fill-opacity="0.4"/>
<path d="M387.798 39.396V133.796H395.398C403.665 133.796 407.798 129.129 407.798 119.796V53.3959C407.798 44.0626 403.665 39.396 395.398 39.396H387.798ZM363.398 156.596V16.5959H397.198C407.998 16.5959 416.532 19.5959 422.798 25.5959C429.198 31.5959 432.398 40.2626 432.398 51.5959V120.996C432.398 132.329 429.132 141.129 422.598 147.396C416.065 153.529 407.398 156.596 396.598 156.596H363.398Z" fill="#FF928B" fill-opacity="0.4"/>
<path d="M472.713 49.396V123.796C472.713 127.529 473.646 130.463 475.513 132.596C477.513 134.729 480.112 135.796 483.312 135.796C486.513 135.796 489.046 134.729 490.912 132.596C492.779 130.463 493.713 127.529 493.713 123.796V49.396C493.713 45.6626 492.779 42.7293 490.912 40.5959C489.046 38.4626 486.513 37.396 483.312 37.396C480.112 37.396 477.513 38.4626 475.513 40.5959C473.646 42.7293 472.713 45.6626 472.713 49.396ZM448.312 124.196V49.7959C448.312 39.2626 451.713 30.7959 458.513 24.396C465.312 17.8626 473.713 14.5959 483.713 14.5959C493.713 14.5959 501.979 17.7293 508.513 23.9959C515.046 30.2626 518.312 38.5959 518.312 48.9959V123.596C518.312 133.996 514.912 142.463 508.112 148.996C501.312 155.396 492.912 158.596 482.912 158.596C472.912 158.596 464.646 155.463 458.112 149.196C451.579 142.929 448.312 134.596 448.312 124.196Z" fill="#FF928B" fill-opacity="0.4"/>
<path d="M560.65 39.396V82.596H568.25C576.517 82.596 580.65 77.9293 580.65 68.5959V53.3959C580.65 44.0626 576.517 39.396 568.25 39.396H560.65ZM611.25 156.596H585.85L570.65 102.996H560.65V156.596H536.25V16.5959H568.45C580.05 16.5959 589.05 19.6626 595.45 25.7959C601.983 31.9293 605.25 40.9959 605.25 52.996V68.1959C605.25 80.8626 600.917 89.796 592.25 94.9959L611.25 156.596Z" fill="#FF928B" fill-opacity="0.4"/>
<path d="M622.188 156.596V16.5959H646.588V78.396L667.987 16.5959H695.188L668.787 82.9959L697.188 156.596H669.987L646.588 90.396V156.596H622.188Z" fill="#FF928B" fill-opacity="0.4"/>
<path d="M734.85 113.596V124.796C734.85 128.529 735.717 131.463 737.45 133.596C739.183 135.729 741.517 136.796 744.45 136.796C747.517 136.796 749.917 135.796 751.65 133.796C753.383 131.663 754.25 128.863 754.25 125.396C754.25 115.263 748.183 104.129 736.05 91.9959C720.983 76.9293 713.45 62.0626 713.45 47.396C713.45 39.2626 715.65 32.4626 720.05 26.996C724.583 21.3959 730.45 17.7959 737.65 16.1959V0.595947H752.05V15.7959C759.517 16.9959 765.45 20.2626 769.85 25.5959C774.383 30.7959 776.65 37.5959 776.65 45.9959V56.596H754.25V47.396C754.25 43.9293 753.45 41.2626 751.85 39.396C750.25 37.396 748.117 36.396 745.45 36.396C742.783 36.396 740.65 37.3293 739.05 39.1959C737.583 41.0626 736.85 43.596 736.85 46.7959C736.85 55.0626 743.05 65.4626 755.45 77.9959C770.117 93.0626 777.45 108.663 777.45 124.796C777.45 133.329 775.117 140.463 770.45 146.196C765.783 151.796 759.65 155.396 752.05 156.996V172.596H737.65V157.396C729.917 156.196 723.717 152.863 719.05 147.396C714.517 141.929 712.25 134.863 712.25 126.196V113.596H734.85Z" fill="#FF928B" fill-opacity="0.4"/>
<path d="M817.798 39.396V133.796H825.398C833.665 133.796 837.798 129.129 837.798 119.796V53.3959C837.798 44.0626 833.665 39.396 825.398 39.396H817.798ZM793.398 156.596V16.5959H827.198C837.998 16.5959 846.532 19.5959 852.798 25.5959C859.198 31.5959 862.398 40.2626 862.398 51.5959V120.996C862.398 132.329 859.132 141.129 852.598 147.396C846.065 153.529 837.398 156.596 826.598 156.596H793.398Z" fill="#FF928B" fill-opacity="0.4"/>
<path d="M902.713 49.396V123.796C902.713 127.529 903.646 130.463 905.512 132.596C907.512 134.729 910.113 135.796 913.312 135.796C916.512 135.796 919.046 134.729 920.912 132.596C922.779 130.463 923.713 127.529 923.713 123.796V49.396C923.713 45.6626 922.779 42.7293 920.912 40.5959C919.046 38.4626 916.512 37.396 913.312 37.396C910.113 37.396 907.512 38.4626 905.512 40.5959C903.646 42.7293 902.713 45.6626 902.713 49.396ZM878.312 124.196V49.7959C878.312 39.2626 881.712 30.7959 888.512 24.396C895.312 17.8626 903.713 14.5959 913.713 14.5959C923.713 14.5959 931.979 17.7293 938.512 23.9959C945.046 30.2626 948.312 38.5959 948.312 48.9959V123.596C948.312 133.996 944.913 142.463 938.113 148.996C931.312 155.396 922.912 158.596 912.912 158.596C902.912 158.596 894.646 155.463 888.113 149.196C881.579 142.929 878.312 134.596 878.312 124.196Z" fill="#FF928B" fill-opacity="0.4"/>
<path d="M990.65 39.396V82.596H998.25C1006.52 82.596 1010.65 77.9293 1010.65 68.5959V53.3959C1010.65 44.0626 1006.52 39.396 998.25 39.396H990.65ZM1041.25 156.596H1015.85L1000.65 102.996H990.65V156.596H966.25V16.5959H998.45C1010.05 16.5959 1019.05 19.6626 1025.45 25.7959C1031.98 31.9293 1035.25 40.9959 1035.25 52.996V68.1959C1035.25 80.8626 1030.92 89.796 1022.25 94.9959L1041.25 156.596Z" fill="#FF928B" fill-opacity="0.4"/>
<path d="M1052.19 156.596V16.5959H1076.59V78.396L1097.99 16.5959H1125.19L1098.79 82.9959L1127.19 156.596H1099.99L1076.59 90.396V156.596H1052.19Z" fill="#FF928B" fill-opacity="0.4"/>
<path d="M1163.85 113.596V124.796C1163.85 128.529 1164.72 131.463 1166.45 133.596C1168.18 135.729 1170.52 136.796 1173.45 136.796C1176.52 136.796 1178.92 135.796 1180.65 133.796C1182.38 131.663 1183.25 128.863 1183.25 125.396C1183.25 115.263 1177.18 104.129 1165.05 91.9959C1149.98 76.9293 1142.45 62.0626 1142.45 47.396C1142.45 39.2626 1144.65 32.4626 1149.05 26.996C1153.58 21.3959 1159.45 17.7959 1166.65 16.1959V0.595947H1181.05V15.7959C1188.52 16.9959 1194.45 20.2626 1198.85 25.5959C1203.38 30.7959 1205.65 37.5959 1205.65 45.9959V56.596H1183.25V47.396C1183.25 43.9293 1182.45 41.2626 1180.85 39.396C1179.25 37.396 1177.12 36.396 1174.45 36.396C1171.78 36.396 1169.65 37.3293 1168.05 39.1959C1166.58 41.0626 1165.85 43.596 1165.85 46.7959C1165.85 55.0626 1172.05 65.4626 1184.45 77.9959C1199.12 93.0626 1206.45 108.663 1206.45 124.796C1206.45 133.329 1204.12 140.463 1199.45 146.196C1194.78 151.796 1188.65 155.396 1181.05 156.996V172.596H1166.65V157.396C1158.92 156.196 1152.72 152.863 1148.05 147.396C1143.52 141.929 1141.25 134.863 1141.25 126.196V113.596H1163.85Z" fill="#FF928B" fill-opacity="0.4"/>
<path d="M1246.8 39.396V133.796H1254.4C1262.67 133.796 1266.8 129.129 1266.8 119.796V53.3959C1266.8 44.0626 1262.67 39.396 1254.4 39.396H1246.8ZM1222.4 156.596V16.5959H1256.2C1267 16.5959 1275.53 19.5959 1281.8 25.5959C1288.2 31.5959 1291.4 40.2626 1291.4 51.5959V120.996C1291.4 132.329 1288.13 141.129 1281.6 147.396C1275.07 153.529 1266.4 156.596 1255.6 156.596H1222.4Z" fill="#FF928B" fill-opacity="0.4"/>
<path d="M1331.71 49.396V123.796C1331.71 127.529 1332.65 130.463 1334.51 132.596C1336.51 134.729 1339.11 135.796 1342.31 135.796C1345.51 135.796 1348.05 134.729 1349.91 132.596C1351.78 130.463 1352.71 127.529 1352.71 123.796V49.396C1352.71 45.6626 1351.78 42.7293 1349.91 40.5959C1348.05 38.4626 1345.51 37.396 1342.31 37.396C1339.11 37.396 1336.51 38.4626 1334.51 40.5959C1332.65 42.7293 1331.71 45.6626 1331.71 49.396ZM1307.31 124.196V49.7959C1307.31 39.2626 1310.71 30.7959 1317.51 24.396C1324.31 17.8626 1332.71 14.5959 1342.71 14.5959C1352.71 14.5959 1360.98 17.7293 1367.51 23.9959C1374.05 30.2626 1377.31 38.5959 1377.31 48.9959V123.596C1377.31 133.996 1373.91 142.463 1367.11 148.996C1360.31 155.396 1351.91 158.596 1341.91 158.596C1331.91 158.596 1323.65 155.463 1317.11 149.196C1310.58 142.929 1307.31 134.596 1307.31 124.196Z" fill="#FF928B" fill-opacity="0.4"/>
<path d="M1419.65 39.396V82.596H1427.25C1435.52 82.596 1439.65 77.9293 1439.65 68.5959V53.3959C1439.65 44.0626 1435.52 39.396 1427.25 39.396H1419.65ZM1470.25 156.596H1444.85L1429.65 102.996H1419.65V156.596H1395.25V16.5959H1427.45C1439.05 16.5959 1448.05 19.6626 1454.45 25.7959C1460.98 31.9293 1464.25 40.9959 1464.25 52.996V68.1959C1464.25 80.8626 1459.92 89.796 1451.25 94.9959L1470.25 156.596Z" fill="#FF928B" fill-opacity="0.4"/>
<path d="M1481.19 156.596V16.5959H1505.59V78.396L1526.99 16.5959H1554.19L1527.79 82.9959L1556.19 156.596H1528.99L1505.59 90.396V156.596H1481.19Z" fill="#FF928B" fill-opacity="0.4"/>
</g>
<g opacity="0.5">
<path d="M-213.087 276.082V287.282C-213.087 291.015 -212.221 293.949 -210.487 296.082C-208.754 298.215 -206.421 299.282 -203.487 299.282C-200.421 299.282 -198.021 298.282 -196.287 296.282C-194.554 294.149 -193.688 291.349 -193.688 287.882C-193.688 277.749 -199.754 266.615 -211.887 254.482C-226.954 239.415 -234.487 224.549 -234.487 209.882C-234.487 201.749 -232.287 194.949 -227.887 189.482C-223.354 183.882 -217.487 180.282 -210.287 178.682V163.082H-195.887V178.282C-188.421 179.482 -182.487 182.749 -178.087 188.082C-173.554 193.282 -171.287 200.082 -171.287 208.482V219.082H-193.688V209.882C-193.688 206.415 -194.487 203.749 -196.087 201.882C-197.688 199.882 -199.821 198.882 -202.487 198.882C-205.154 198.882 -207.287 199.815 -208.887 201.682C-210.354 203.549 -211.087 206.082 -211.087 209.282C-211.087 217.549 -204.887 227.949 -192.487 240.482C-177.821 255.549 -170.487 271.149 -170.487 287.282C-170.487 295.815 -172.821 302.949 -177.487 308.682C-182.154 314.282 -188.287 317.882 -195.887 319.482V335.082H-210.287V319.882C-218.021 318.682 -224.221 315.349 -228.887 309.882C-233.421 304.415 -235.688 297.349 -235.688 288.682V276.082H-213.087Z" fill="#FF928B" fill-opacity="0.4"/>
<path d="M-130.139 201.882V296.282H-122.539C-114.272 296.282 -110.139 291.615 -110.139 282.282V215.882C-110.139 206.549 -114.272 201.882 -122.539 201.882H-130.139ZM-154.539 319.082V179.082H-120.739C-109.939 179.082 -101.406 182.082 -95.1391 188.082C-88.7391 194.082 -85.5391 202.749 -85.5391 214.082V283.482C-85.5391 294.815 -88.8057 303.615 -95.3391 309.882C-101.872 316.015 -110.539 319.082 -121.339 319.082H-154.539Z" fill="#FF928B" fill-opacity="0.4"/>
<path d="M-45.225 211.882V286.282C-45.225 290.015 -44.2917 292.949 -42.425 295.082C-40.425 297.215 -37.825 298.282 -34.625 298.282C-31.425 298.282 -28.8917 297.215 -27.025 295.082C-25.1583 292.949 -24.225 290.015 -24.225 286.282V211.882C-24.225 208.149 -25.1583 205.215 -27.025 203.082C-28.8917 200.949 -31.425 199.882 -34.625 199.882C-37.825 199.882 -40.425 200.949 -42.425 203.082C-44.2917 205.215 -45.225 208.149 -45.225 211.882ZM-69.625 286.682V212.282C-69.625 201.749 -66.225 193.282 -59.425 186.882C-52.625 180.349 -44.225 177.082 -34.225 177.082C-24.225 177.082 -15.9583 180.215 -9.425 186.482C-2.89166 192.749 0.375 201.082 0.375 211.482V286.082C0.375 296.482 -3.02499 304.949 -9.825 311.482C-16.625 317.882 -25.025 321.082 -35.025 321.082C-45.025 321.082 -53.2917 317.949 -59.825 311.682C-66.3583 305.415 -69.625 297.082 -69.625 286.682Z" fill="#FF928B" fill-opacity="0.4"/>
<path d="M42.7125 201.882V245.082H50.3125C58.5792 245.082 62.7125 240.415 62.7125 231.082V215.882C62.7125 206.549 58.5792 201.882 50.3125 201.882H42.7125ZM93.3125 319.082H67.9125L52.7125 265.482H42.7125V319.082H18.3125V179.082H50.5125C62.1125 179.082 71.1125 182.149 77.5125 188.282C84.0458 194.415 87.3125 203.482 87.3125 215.482V230.682C87.3125 243.349 82.9792 252.282 74.3125 257.482L93.3125 319.082Z" fill="#FF928B" fill-opacity="0.4"/>
<path d="M104.25 319.082V179.082H128.65V240.882L150.05 179.082H177.25L150.85 245.482L179.25 319.082H152.05L128.65 252.882V319.082H104.25Z" fill="#FF928B" fill-opacity="0.4"/>
<path d="M215.913 276.082V287.282C215.913 291.015 216.779 293.949 218.513 296.082C220.246 298.215 222.579 299.282 225.513 299.282C228.579 299.282 230.979 298.282 232.712 296.282C234.446 294.149 235.312 291.349 235.312 287.882C235.312 277.749 229.246 266.615 217.112 254.482C202.046 239.415 194.513 224.549 194.513 209.882C194.513 201.749 196.712 194.949 201.112 189.482C205.646 183.882 211.512 180.282 218.712 178.682V163.082H233.113V178.282C240.579 179.482 246.513 182.749 250.913 188.082C255.446 193.282 257.712 200.082 257.712 208.482V219.082H235.312V209.882C235.312 206.415 234.513 203.749 232.913 201.882C231.312 199.882 229.179 198.882 226.513 198.882C223.846 198.882 221.712 199.815 220.112 201.682C218.646 203.549 217.913 206.082 217.913 209.282C217.913 217.549 224.113 227.949 236.513 240.482C251.179 255.549 258.513 271.149 258.513 287.282C258.513 295.815 256.179 302.949 251.513 308.682C246.846 314.282 240.713 317.882 233.113 319.482V335.082H218.712V319.882C210.979 318.682 204.779 315.349 200.112 309.882C195.579 304.415 193.312 297.349 193.312 288.682V276.082H215.913Z" fill="#FF928B" fill-opacity="0.4"/>
<path d="M298.861 201.882V296.282H306.461C314.728 296.282 318.861 291.615 318.861 282.282V215.882C318.861 206.549 314.728 201.882 306.461 201.882H298.861ZM274.461 319.082V179.082H308.261C319.061 179.082 327.594 182.082 333.861 188.082C340.261 194.082 343.461 202.749 343.461 214.082V283.482C343.461 294.815 340.194 303.615 333.661 309.882C327.128 316.015 318.461 319.082 307.661 319.082H274.461Z" fill="#FF928B" fill-opacity="0.4"/>
<path d="M383.775 211.882V286.282C383.775 290.015 384.708 292.949 386.575 295.082C388.575 297.215 391.175 298.282 394.375 298.282C397.575 298.282 400.108 297.215 401.975 295.082C403.842 292.949 404.775 290.015 404.775 286.282V211.882C404.775 208.149 403.842 205.215 401.975 203.082C400.108 200.949 397.575 199.882 394.375 199.882C391.175 199.882 388.575 200.949 386.575 203.082C384.708 205.215 383.775 208.149 383.775 211.882ZM359.375 286.682V212.282C359.375 201.749 362.775 193.282 369.575 186.882C376.375 180.349 384.775 177.082 394.775 177.082C404.775 177.082 413.042 180.215 419.575 186.482C426.108 192.749 429.375 201.082 429.375 211.482V286.082C429.375 296.482 425.975 304.949 419.175 311.482C412.375 317.882 403.975 321.082 393.975 321.082C383.975 321.082 375.708 317.949 369.175 311.682C362.642 305.415 359.375 297.082 359.375 286.682Z" fill="#FF928B" fill-opacity="0.4"/>
<path d="M471.713 201.882V245.082H479.312C487.579 245.082 491.713 240.415 491.713 231.082V215.882C491.713 206.549 487.579 201.882 479.312 201.882H471.713ZM522.312 319.082H496.912L481.713 265.482H471.713V319.082H447.312V179.082H479.513C491.112 179.082 500.112 182.149 506.513 188.282C513.046 194.415 516.312 203.482 516.312 215.482V230.682C516.312 243.349 511.979 252.282 503.312 257.482L522.312 319.082Z" fill="#FF928B" fill-opacity="0.4"/>
<path d="M533.25 319.082V179.082H557.65V240.882L579.05 179.082H606.25L579.85 245.482L608.25 319.082H581.05L557.65 252.882V319.082H533.25Z" fill="#FF928B" fill-opacity="0.4"/>
<path d="M645.912 276.082V287.282C645.912 291.015 646.779 293.949 648.513 296.082C650.246 298.215 652.579 299.282 655.513 299.282C658.579 299.282 660.979 298.282 662.713 296.282C664.446 294.149 665.312 291.349 665.312 287.882C665.312 277.749 659.246 266.615 647.112 254.482C632.046 239.415 624.513 224.549 624.513 209.882C624.513 201.749 626.712 194.949 631.112 189.482C635.646 183.882 641.513 180.282 648.713 178.682V163.082H663.112V178.282C670.579 179.482 676.512 182.749 680.912 188.082C685.446 193.282 687.713 200.082 687.713 208.482V219.082H665.312V209.882C665.312 206.415 664.512 203.749 662.912 201.882C661.312 199.882 659.179 198.882 656.513 198.882C653.846 198.882 651.712 199.815 650.112 201.682C648.646 203.549 647.912 206.082 647.912 209.282C647.912 217.549 654.112 227.949 666.513 240.482C681.179 255.549 688.513 271.149 688.513 287.282C688.513 295.815 686.179 302.949 681.513 308.682C676.846 314.282 670.712 317.882 663.112 319.482V335.082H648.713V319.882C640.979 318.682 634.779 315.349 630.112 309.882C625.579 304.415 623.312 297.349 623.312 288.682V276.082H645.912Z" fill="#FF928B" fill-opacity="0.4"/>
<path d="M728.861 201.882V296.282H736.461C744.728 296.282 748.861 291.615 748.861 282.282V215.882C748.861 206.549 744.728 201.882 736.461 201.882H728.861ZM704.461 319.082V179.082H738.261C749.061 179.082 757.594 182.082 763.861 188.082C770.261 194.082 773.461 202.749 773.461 214.082V283.482C773.461 294.815 770.194 303.615 763.661 309.882C757.128 316.015 748.461 319.082 737.661 319.082H704.461Z" fill="#FF928B" fill-opacity="0.4"/>
<path d="M813.775 211.882V286.282C813.775 290.015 814.708 292.949 816.575 295.082C818.575 297.215 821.175 298.282 824.375 298.282C827.575 298.282 830.108 297.215 831.975 295.082C833.842 292.949 834.775 290.015 834.775 286.282V211.882C834.775 208.149 833.842 205.215 831.975 203.082C830.108 200.949 827.575 199.882 824.375 199.882C821.175 199.882 818.575 200.949 816.575 203.082C814.708 205.215 813.775 208.149 813.775 211.882ZM789.375 286.682V212.282C789.375 201.749 792.775 193.282 799.575 186.882C806.375 180.349 814.775 177.082 824.775 177.082C834.775 177.082 843.042 180.215 849.575 186.482C856.108 192.749 859.375 201.082 859.375 211.482V286.082C859.375 296.482 855.975 304.949 849.175 311.482C842.375 317.882 833.975 321.082 823.975 321.082C813.975 321.082 805.708 317.949 799.175 311.682C792.642 305.415 789.375 297.082 789.375 286.682Z" fill="#FF928B" fill-opacity="0.4"/>
<path d="M901.713 201.882V245.082H909.312C917.579 245.082 921.713 240.415 921.713 231.082V215.882C921.713 206.549 917.579 201.882 909.312 201.882H901.713ZM952.312 319.082H926.912L911.713 265.482H901.713V319.082H877.312V179.082H909.512C921.112 179.082 930.112 182.149 936.512 188.282C943.046 194.415 946.312 203.482 946.312 215.482V230.682C946.312 243.349 941.979 252.282 933.312 257.482L952.312 319.082Z" fill="#FF928B" fill-opacity="0.4"/>
<path d="M963.25 319.082V179.082H987.65V240.882L1009.05 179.082H1036.25L1009.85 245.482L1038.25 319.082H1011.05L987.65 252.882V319.082H963.25Z" fill="#FF928B" fill-opacity="0.4"/>
<path d="M1074.91 276.082V287.282C1074.91 291.015 1075.78 293.949 1077.51 296.082C1079.25 298.215 1081.58 299.282 1084.51 299.282C1087.58 299.282 1089.98 298.282 1091.71 296.282C1093.45 294.149 1094.31 291.349 1094.31 287.882C1094.31 277.749 1088.25 266.615 1076.11 254.482C1061.05 239.415 1053.51 224.549 1053.51 209.882C1053.51 201.749 1055.71 194.949 1060.11 189.482C1064.65 183.882 1070.51 180.282 1077.71 178.682V163.082H1092.11V178.282C1099.58 179.482 1105.51 182.749 1109.91 188.082C1114.45 193.282 1116.71 200.082 1116.71 208.482V219.082H1094.31V209.882C1094.31 206.415 1093.51 203.749 1091.91 201.882C1090.31 199.882 1088.18 198.882 1085.51 198.882C1082.85 198.882 1080.71 199.815 1079.11 201.682C1077.65 203.549 1076.91 206.082 1076.91 209.282C1076.91 217.549 1083.11 227.949 1095.51 240.482C1110.18 255.549 1117.51 271.149 1117.51 287.282C1117.51 295.815 1115.18 302.949 1110.51 308.682C1105.85 314.282 1099.71 317.882 1092.11 319.482V335.082H1077.71V319.882C1069.98 318.682 1063.78 315.349 1059.11 309.882C1054.58 304.415 1052.31 297.349 1052.31 288.682V276.082H1074.91Z" fill="#FF928B" fill-opacity="0.4"/>
<path d="M1157.86 201.882V296.282H1165.46C1173.73 296.282 1177.86 291.615 1177.86 282.282V215.882C1177.86 206.549 1173.73 201.882 1165.46 201.882H1157.86ZM1133.46 319.082V179.082H1167.26C1178.06 179.082 1186.59 182.082 1192.86 188.082C1199.26 194.082 1202.46 202.749 1202.46 214.082V283.482C1202.46 294.815 1199.19 303.615 1192.66 309.882C1186.13 316.015 1177.46 319.082 1166.66 319.082H1133.46Z" fill="#FF928B" fill-opacity="0.4"/>
<path d="M1242.78 211.882V286.282C1242.78 290.015 1243.71 292.949 1245.57 295.082C1247.57 297.215 1250.18 298.282 1253.38 298.282C1256.57 298.282 1259.11 297.215 1260.97 295.082C1262.84 292.949 1263.78 290.015 1263.78 286.282V211.882C1263.78 208.149 1262.84 205.215 1260.97 203.082C1259.11 200.949 1256.57 199.882 1253.38 199.882C1250.18 199.882 1247.57 200.949 1245.57 203.082C1243.71 205.215 1242.78 208.149 1242.78 211.882ZM1218.38 286.682V212.282C1218.38 201.749 1221.77 193.282 1228.57 186.882C1235.38 180.349 1243.78 177.082 1253.78 177.082C1263.78 177.082 1272.04 180.215 1278.57 186.482C1285.11 192.749 1288.38 201.082 1288.38 211.482V286.082C1288.38 296.482 1284.98 304.949 1278.18 311.482C1271.38 317.882 1262.97 321.082 1252.97 321.082C1242.97 321.082 1234.71 317.949 1228.18 311.682C1221.64 305.415 1218.38 297.082 1218.38 286.682Z" fill="#FF928B" fill-opacity="0.4"/>
<path d="M1330.71 201.882V245.082H1338.31C1346.58 245.082 1350.71 240.415 1350.71 231.082V215.882C1350.71 206.549 1346.58 201.882 1338.31 201.882H1330.71ZM1381.31 319.082H1355.91L1340.71 265.482H1330.71V319.082H1306.31V179.082H1338.51C1350.11 179.082 1359.11 182.149 1365.51 188.282C1372.05 194.415 1375.31 203.482 1375.31 215.482V230.682C1375.31 243.349 1370.98 252.282 1362.31 257.482L1381.31 319.082Z" fill="#FF928B" fill-opacity="0.4"/>
<path d="M1392.25 319.082V179.082H1416.65V240.882L1438.05 179.082H1465.25L1438.85 245.482L1467.25 319.082H1440.05L1416.65 252.882V319.082H1392.25Z" fill="#FF928B" fill-opacity="0.4"/>
</g>
<g opacity="0.5">
<path d="M-177.087 425.582V436.782C-177.087 440.515 -176.221 443.449 -174.487 445.582C-172.754 447.715 -170.421 448.782 -167.487 448.782C-164.421 448.782 -162.021 447.782 -160.287 445.782C-158.554 443.649 -157.688 440.849 -157.688 437.382C-157.688 427.249 -163.754 416.115 -175.887 403.982C-190.954 388.915 -198.487 374.049 -198.487 359.382C-198.487 351.249 -196.287 344.449 -191.887 338.982C-187.354 333.382 -181.487 329.782 -174.287 328.182V312.582H-159.887V327.782C-152.421 328.982 -146.487 332.249 -142.087 337.582C-137.554 342.782 -135.287 349.582 -135.287 357.982V368.582H-157.688V359.382C-157.688 355.915 -158.487 353.249 -160.087 351.382C-161.688 349.382 -163.821 348.382 -166.487 348.382C-169.154 348.382 -171.287 349.315 -172.887 351.182C-174.354 353.049 -175.087 355.582 -175.087 358.782C-175.087 367.049 -168.887 377.449 -156.487 389.982C-141.821 405.049 -134.487 420.649 -134.487 436.782C-134.487 445.315 -136.821 452.449 -141.487 458.182C-146.154 463.782 -152.287 467.382 -159.887 468.982V484.582H-174.287V469.382C-182.021 468.182 -188.221 464.849 -192.887 459.382C-197.421 453.915 -199.688 446.849 -199.688 438.182V425.582H-177.087Z" fill="#FF928B" fill-opacity="0.15"/>
<path d="M-94.1391 351.382V445.782H-86.5391C-78.2724 445.782 -74.1391 441.115 -74.1391 431.782V365.382C-74.1391 356.049 -78.2724 351.382 -86.5391 351.382H-94.1391ZM-118.539 468.582V328.582H-84.7391C-73.9391 328.582 -65.4057 331.582 -59.1391 337.582C-52.7391 343.582 -49.5391 352.249 -49.5391 363.582V432.982C-49.5391 444.315 -52.8057 453.115 -59.3391 459.382C-65.8724 465.515 -74.5391 468.582 -85.3391 468.582H-118.539Z" fill="#FF928B" fill-opacity="0.15"/>
<path d="M-9.22501 361.382V435.782C-9.22501 439.515 -8.29167 442.449 -6.425 444.582C-4.425 446.715 -1.825 447.782 1.375 447.782C4.575 447.782 7.10834 446.715 8.97501 444.582C10.8417 442.449 11.775 439.515 11.775 435.782V361.382C11.775 357.649 10.8417 354.715 8.97501 352.582C7.10834 350.449 4.575 349.382 1.375 349.382C-1.825 349.382 -4.425 350.449 -6.425 352.582C-8.29167 354.715 -9.22501 357.649 -9.22501 361.382ZM-33.625 436.182V361.782C-33.625 351.249 -30.225 342.782 -23.425 336.382C-16.625 329.849 -8.22501 326.582 1.77499 326.582C11.775 326.582 20.0417 329.715 26.575 335.982C33.1083 342.249 36.375 350.582 36.375 360.982V435.582C36.375 445.982 32.975 454.449 26.175 460.982C19.375 467.382 10.975 470.582 0.975006 470.582C-9.02499 470.582 -17.2917 467.449 -23.825 461.182C-30.3583 454.915 -33.625 446.582 -33.625 436.182Z" fill="#FF928B" fill-opacity="0.15"/>
<path d="M78.7125 351.382V394.582H86.3125C94.5792 394.582 98.7125 389.915 98.7125 380.582V365.382C98.7125 356.049 94.5792 351.382 86.3125 351.382H78.7125ZM129.312 468.582H103.913L88.7125 414.982H78.7125V468.582H54.3125V328.582H86.5125C98.1125 328.582 107.113 331.649 113.513 337.782C120.046 343.915 123.312 352.982 123.312 364.982V380.182C123.312 392.849 118.979 401.782 110.312 406.982L129.312 468.582Z" fill="#FF928B" fill-opacity="0.15"/>
<path d="M140.25 468.582V328.582H164.65V390.382L186.05 328.582H213.25L186.85 394.982L215.25 468.582H188.05L164.65 402.382V468.582H140.25Z" fill="#FF928B" fill-opacity="0.15"/>
<path d="M251.913 425.582V436.782C251.913 440.515 252.779 443.449 254.513 445.582C256.246 447.715 258.579 448.782 261.513 448.782C264.579 448.782 266.979 447.782 268.712 445.782C270.446 443.649 271.312 440.849 271.312 437.382C271.312 427.249 265.246 416.115 253.112 403.982C238.046 388.915 230.513 374.049 230.513 359.382C230.513 351.249 232.712 344.449 237.112 338.982C241.646 333.382 247.512 329.782 254.712 328.182V312.582H269.113V327.782C276.579 328.982 282.513 332.249 286.913 337.582C291.446 342.782 293.712 349.582 293.712 357.982V368.582H271.312V359.382C271.312 355.915 270.513 353.249 268.913 351.382C267.312 349.382 265.179 348.382 262.513 348.382C259.846 348.382 257.712 349.315 256.112 351.182C254.646 353.049 253.913 355.582 253.913 358.782C253.913 367.049 260.113 377.449 272.513 389.982C287.179 405.049 294.513 420.649 294.513 436.782C294.513 445.315 292.179 452.449 287.513 458.182C282.846 463.782 276.713 467.382 269.113 468.982V484.582H254.712V469.382C246.979 468.182 240.779 464.849 236.112 459.382C231.579 453.915 229.312 446.849 229.312 438.182V425.582H251.913Z" fill="#FF928B" fill-opacity="0.15"/>
<path d="M334.861 351.382V445.782H342.461C350.728 445.782 354.861 441.115 354.861 431.782V365.382C354.861 356.049 350.728 351.382 342.461 351.382H334.861ZM310.461 468.582V328.582H344.261C355.061 328.582 363.594 331.582 369.861 337.582C376.261 343.582 379.461 352.249 379.461 363.582V432.982C379.461 444.315 376.194 453.115 369.661 459.382C363.128 465.515 354.461 468.582 343.661 468.582H310.461Z" fill="#FF928B" fill-opacity="0.15"/>
<path d="M419.775 361.382V435.782C419.775 439.515 420.708 442.449 422.575 444.582C424.575 446.715 427.175 447.782 430.375 447.782C433.575 447.782 436.108 446.715 437.975 444.582C439.842 442.449 440.775 439.515 440.775 435.782V361.382C440.775 357.649 439.842 354.715 437.975 352.582C436.108 350.449 433.575 349.382 430.375 349.382C427.175 349.382 424.575 350.449 422.575 352.582C420.708 354.715 419.775 357.649 419.775 361.382ZM395.375 436.182V361.782C395.375 351.249 398.775 342.782 405.575 336.382C412.375 329.849 420.775 326.582 430.775 326.582C440.775 326.582 449.042 329.715 455.575 335.982C462.108 342.249 465.375 350.582 465.375 360.982V435.582C465.375 445.982 461.975 454.449 455.175 460.982C448.375 467.382 439.975 470.582 429.975 470.582C419.975 470.582 411.708 467.449 405.175 461.182C398.642 454.915 395.375 446.582 395.375 436.182Z" fill="#FF928B" fill-opacity="0.15"/>
<path d="M507.713 351.382V394.582H515.312C523.579 394.582 527.713 389.915 527.713 380.582V365.382C527.713 356.049 523.579 351.382 515.312 351.382H507.713ZM558.312 468.582H532.912L517.713 414.982H507.713V468.582H483.312V328.582H515.513C527.112 328.582 536.112 331.649 542.513 337.782C549.046 343.915 552.312 352.982 552.312 364.982V380.182C552.312 392.849 547.979 401.782 539.312 406.982L558.312 468.582Z" fill="#FF928B" fill-opacity="0.15"/>
<path d="M569.25 468.582V328.582H593.65V390.382L615.05 328.582H642.25L615.85 394.982L644.25 468.582H617.05L593.65 402.382V468.582H569.25Z" fill="#FF928B" fill-opacity="0.15"/>
<path d="M681.912 425.582V436.782C681.912 440.515 682.779 443.449 684.513 445.582C686.246 447.715 688.579 448.782 691.513 448.782C694.579 448.782 696.979 447.782 698.713 445.782C700.446 443.649 701.312 440.849 701.312 437.382C701.312 427.249 695.246 416.115 683.112 403.982C668.046 388.915 660.513 374.049 660.513 359.382C660.513 351.249 662.712 344.449 667.112 338.982C671.646 333.382 677.513 329.782 684.713 328.182V312.582H699.112V327.782C706.579 328.982 712.512 332.249 716.912 337.582C721.446 342.782 723.713 349.582 723.713 357.982V368.582H701.312V359.382C701.312 355.915 700.512 353.249 698.912 351.382C697.312 349.382 695.179 348.382 692.513 348.382C689.846 348.382 687.712 349.315 686.112 351.182C684.646 353.049 683.912 355.582 683.912 358.782C683.912 367.049 690.112 377.449 702.513 389.982C717.179 405.049 724.513 420.649 724.513 436.782C724.513 445.315 722.179 452.449 717.513 458.182C712.846 463.782 706.712 467.382 699.112 468.982V484.582H684.713V469.382C676.979 468.182 670.779 464.849 666.112 459.382C661.579 453.915 659.312 446.849 659.312 438.182V425.582H681.912Z" fill="#FF928B" fill-opacity="0.15"/>
<path d="M764.861 351.382V445.782H772.461C780.728 445.782 784.861 441.115 784.861 431.782V365.382C784.861 356.049 780.728 351.382 772.461 351.382H764.861ZM740.461 468.582V328.582H774.261C785.061 328.582 793.594 331.582 799.861 337.582C806.261 343.582 809.461 352.249 809.461 363.582V432.982C809.461 444.315 806.194 453.115 799.661 459.382C793.128 465.515 784.461 468.582 773.661 468.582H740.461Z" fill="#FF928B" fill-opacity="0.15"/>
<path d="M849.775 361.382V435.782C849.775 439.515 850.708 442.449 852.575 444.582C854.575 446.715 857.175 447.782 860.375 447.782C863.575 447.782 866.108 446.715 867.975 444.582C869.842 442.449 870.775 439.515 870.775 435.782V361.382C870.775 357.649 869.842 354.715 867.975 352.582C866.108 350.449 863.575 349.382 860.375 349.382C857.175 349.382 854.575 350.449 852.575 352.582C850.708 354.715 849.775 357.649 849.775 361.382ZM825.375 436.182V361.782C825.375 351.249 828.775 342.782 835.575 336.382C842.375 329.849 850.775 326.582 860.775 326.582C870.775 326.582 879.042 329.715 885.575 335.982C892.108 342.249 895.375 350.582 895.375 360.982V435.582C895.375 445.982 891.975 454.449 885.175 460.982C878.375 467.382 869.975 470.582 859.975 470.582C849.975 470.582 841.708 467.449 835.175 461.182C828.642 454.915 825.375 446.582 825.375 436.182Z" fill="#FF928B" fill-opacity="0.15"/>
<path d="M937.713 351.382V394.582H945.312C953.579 394.582 957.713 389.915 957.713 380.582V365.382C957.713 356.049 953.579 351.382 945.312 351.382H937.713ZM988.312 468.582H962.912L947.713 414.982H937.713V468.582H913.312V328.582H945.512C957.112 328.582 966.112 331.649 972.512 337.782C979.046 343.915 982.312 352.982 982.312 364.982V380.182C982.312 392.849 977.979 401.782 969.312 406.982L988.312 468.582Z" fill="#FF928B" fill-opacity="0.15"/>
<path d="M999.25 468.582V328.582H1023.65V390.382L1045.05 328.582H1072.25L1045.85 394.982L1074.25 468.582H1047.05L1023.65 402.382V468.582H999.25Z" fill="#FF928B" fill-opacity="0.15"/>
<path d="M1110.91 425.582V436.782C1110.91 440.515 1111.78 443.449 1113.51 445.582C1115.25 447.715 1117.58 448.782 1120.51 448.782C1123.58 448.782 1125.98 447.782 1127.71 445.782C1129.45 443.649 1130.31 440.849 1130.31 437.382C1130.31 427.249 1124.25 416.115 1112.11 403.982C1097.05 388.915 1089.51 374.049 1089.51 359.382C1089.51 351.249 1091.71 344.449 1096.11 338.982C1100.65 333.382 1106.51 329.782 1113.71 328.182V312.582H1128.11V327.782C1135.58 328.982 1141.51 332.249 1145.91 337.582C1150.45 342.782 1152.71 349.582 1152.71 357.982V368.582H1130.31V359.382C1130.31 355.915 1129.51 353.249 1127.91 351.382C1126.31 349.382 1124.18 348.382 1121.51 348.382C1118.85 348.382 1116.71 349.315 1115.11 351.182C1113.65 353.049 1112.91 355.582 1112.91 358.782C1112.91 367.049 1119.11 377.449 1131.51 389.982C1146.18 405.049 1153.51 420.649 1153.51 436.782C1153.51 445.315 1151.18 452.449 1146.51 458.182C1141.85 463.782 1135.71 467.382 1128.11 468.982V484.582H1113.71V469.382C1105.98 468.182 1099.78 464.849 1095.11 459.382C1090.58 453.915 1088.31 446.849 1088.31 438.182V425.582H1110.91Z" fill="#FF928B" fill-opacity="0.15"/>
<path d="M1193.86 351.382V445.782H1201.46C1209.73 445.782 1213.86 441.115 1213.86 431.782V365.382C1213.86 356.049 1209.73 351.382 1201.46 351.382H1193.86ZM1169.46 468.582V328.582H1203.26C1214.06 328.582 1222.59 331.582 1228.86 337.582C1235.26 343.582 1238.46 352.249 1238.46 363.582V432.982C1238.46 444.315 1235.19 453.115 1228.66 459.382C1222.13 465.515 1213.46 468.582 1202.66 468.582H1169.46Z" fill="#FF928B" fill-opacity="0.15"/>
<path d="M1278.78 361.382V435.782C1278.78 439.515 1279.71 442.449 1281.57 444.582C1283.57 446.715 1286.18 447.782 1289.38 447.782C1292.57 447.782 1295.11 446.715 1296.97 444.582C1298.84 442.449 1299.78 439.515 1299.78 435.782V361.382C1299.78 357.649 1298.84 354.715 1296.97 352.582C1295.11 350.449 1292.57 349.382 1289.38 349.382C1286.18 349.382 1283.57 350.449 1281.57 352.582C1279.71 354.715 1278.78 357.649 1278.78 361.382ZM1254.38 436.182V361.782C1254.38 351.249 1257.77 342.782 1264.57 336.382C1271.38 329.849 1279.78 326.582 1289.78 326.582C1299.78 326.582 1308.04 329.715 1314.57 335.982C1321.11 342.249 1324.38 350.582 1324.38 360.982V435.582C1324.38 445.982 1320.98 454.449 1314.18 460.982C1307.38 467.382 1298.97 470.582 1288.97 470.582C1278.97 470.582 1270.71 467.449 1264.18 461.182C1257.64 454.915 1254.38 446.582 1254.38 436.182Z" fill="#FF928B" fill-opacity="0.15"/>
<path d="M1366.71 351.382V394.582H1374.31C1382.58 394.582 1386.71 389.915 1386.71 380.582V365.382C1386.71 356.049 1382.58 351.382 1374.31 351.382H1366.71ZM1417.31 468.582H1391.91L1376.71 414.982H1366.71V468.582H1342.31V328.582H1374.51C1386.11 328.582 1395.11 331.649 1401.51 337.782C1408.05 343.915 1411.31 352.982 1411.31 364.982V380.182C1411.31 392.849 1406.98 401.782 1398.31 406.982L1417.31 468.582Z" fill="#FF928B" fill-opacity="0.15"/>
<path d="M1428.25 468.582V328.582H1452.65V390.382L1474.05 328.582H1501.25L1474.85 394.982L1503.25 468.582H1476.05L1452.65 402.382V468.582H1428.25Z" fill="#FF928B" fill-opacity="0.15"/>
</g>
</g>
<defs>
<linearGradient id="paint0_linear_179_11" x1="733.75" y1="0.931396" x2="733.75" y2="319.931" gradientUnits="userSpaceOnUse">
<stop stop-color="#CB4C42"/>
<stop offset="1" stop-color="#654380" stop-opacity="0"/>
</linearGradient>
<clipPath id="clip0_179_11">
<rect width="1467" height="507" fill="white" transform="translate(0.25 0.931396)"/>
</clipPath>
</defs>
</svg>
