<svg width="33" height="34" viewBox="0 0 33 34" fill="none" xmlns="http://www.w3.org/2000/svg">
<g id="Ethscan">
<path id="Vector" d="M9.16968 16.8018V23.4475C9.16968 23.8629 8.85816 24.2782 8.33896 24.2782C7.81976 24.3821 7.4044 24.3821 7.09288 24.3821C6.57368 24.4859 5.95064 24.1744 5.63912 23.6552C5.22376 23.0322 4.91224 22.3053 4.70456 21.5784C2.42008 15.0365 5.8468 7.97537 12.3887 5.69089C18.8268 3.40641 25.8879 6.83313 28.1724 13.375C28.3801 13.8942 28.2762 14.5173 27.8609 15.0365C26.6148 16.5941 25.0572 17.944 23.6034 19.0862V11.5059C23.6034 10.8829 23.0842 10.4675 22.565 10.4675H20.7998C20.1767 10.4675 19.7614 10.9867 19.7614 11.5059V20.6438C19.7614 20.9554 19.5537 21.2669 19.2422 21.4746C18.8268 21.6822 18.4114 21.7861 18.4114 21.7861V14.2058C18.4114 13.5827 17.8922 13.1674 17.373 13.1674H15.6078C14.9847 13.1674 14.5694 13.6866 14.5694 14.2058V22.4091C14.5694 22.8245 14.2578 23.136 13.8425 23.2398C13.531 23.3437 13.3233 23.3437 13.1156 23.4475V16.8018C13.1156 16.1787 12.5964 15.7634 12.0772 15.7634H10.3119C9.58504 15.7634 9.16968 16.1787 9.16968 16.8018ZM9.16968 27.4973C14.777 31.547 22.565 30.301 26.6148 24.7974C28.1724 22.6168 29.0031 20.1246 29.0031 17.4248C29.0031 17.1133 29.0031 16.9056 29.0031 16.5941C24.3303 23.3437 15.9193 26.5627 9.16968 27.4973Z" fill="white"/>
</g>
</svg>
