<svg width="21" height="20" viewBox="0 0 21 20" fill="none" xmlns="http://www.w3.org/2000/svg">
<g id="Group">
<g id="Group_2">
<path id="Vector" d="M19.5165 8.31315V6.64656H20.75V3.30143H18.6527L10.625 0.0532837L2.59734 3.30143H0.5V6.6466H1.73347V8.31319H2.335V14.2551H1.73347V15.9217H0.5V19.2668H20.75V15.9217H19.5165V14.2551H18.915V8.31315H19.5165ZM10.625 1.35106L15.4452 3.30139H5.80483L10.625 1.35106ZM19.5165 17.1246H19.547V18.0638H1.70302V17.1246H1.73347H19.5165ZM15.4906 7.11017H14.5298H11.1054H10.1446H6.72015H5.75942H2.93649V6.6466H18.3135V7.11017H15.4906ZM17.712 8.31315V14.255H16.6936V8.31315H17.712ZM15.4905 8.31315V14.255H14.5298V8.31315H15.4905ZM13.3268 8.31315V14.255H12.3084V8.31315H13.3268ZM10.1446 8.31315H11.1054V14.255H10.1446V8.31315ZM8.9416 8.31315V14.255H7.92321V8.31315H8.9416ZM6.72015 8.31315V14.255H5.75942V8.31315H6.72015ZM4.55641 8.31315V14.255H3.53801V8.31315H4.55641ZM5.75942 15.458H6.72015H10.1446H11.1054H14.5298H15.4906H18.3135V15.9216H2.93649V15.458H5.75942ZM1.73347 5.44358H1.70302V4.50445H19.547V5.44358H19.5165H1.73347Z" fill="url(#paint0_linear_45_724)"/>
</g>
</g>
<defs>
<linearGradient id="paint0_linear_45_724" x1="10.625" y1="0.0532837" x2="10.625" y2="19.2668" gradientUnits="userSpaceOnUse">
<stop stop-color="#BF6AF6"/>
<stop offset="1" stop-color="#F1A795"/>
</linearGradient>
</defs>
</svg>
