<svg width="33" height="34" viewBox="0 0 33 34" fill="none" xmlns="http://www.w3.org/2000/svg">
<g id="Telegram">
<path id="Vector" d="M25.447 7.44524L4.561 15.5872C4.561 15.5872 3.617 15.9412 3.617 16.5312C3.735 17.1212 4.561 17.4752 4.561 17.4752L9.871 19.2452L22.497 11.2212C22.497 11.2212 23.205 10.7492 23.205 11.2212C23.205 11.2212 23.323 11.3392 22.969 11.6932C22.615 12.0472 13.057 20.6612 13.057 20.6612L12.349 26.5612C12.585 26.6792 12.939 26.4432 12.939 26.4432L16.361 23.3752L21.671 27.5052C23.087 28.0952 23.677 26.7972 23.677 26.7972L27.453 8.03524C27.217 6.61924 25.447 7.44524 25.447 7.44524Z" fill="white"/>
</g>
</svg>
